<svg width="24" height="24" viewBox="0 0 24 24" fill="none" xmlns="http://www.w3.org/2000/svg">
  <circle cx="12" cy="12" r="2" fill="currentColor"/>
  <path d="M12 2C13.1 2 14 2.9 14 4C14 5.1 13.1 6 12 6C10.9 6 10 5.1 10 4C10 2.9 10.9 2 12 2ZM21 9V7L19 8L21 9ZM3 9L5 8L3 7V9ZM12 18C10.9 18 10 18.9 10 20C10 21.1 10.9 22 12 22C13.1 22 14 21.1 14 20C14 18.9 13.1 18 12 18ZM5.8 11.7C6.4 11.1 6.4 10.2 5.8 9.6C5.2 9 4.3 9 3.7 9.6C3.1 10.2 3.1 11.1 3.7 11.7C4.3 12.3 5.2 12.3 5.8 11.7ZM20.3 9.6C19.7 9 18.8 9 18.2 9.6C17.6 10.2 17.6 11.1 18.2 11.7C18.8 12.3 19.7 12.3 20.3 11.7C20.9 11.1 20.9 10.2 20.3 9.6ZM9 16C9.6 16.6 9.6 17.5 9 18.1C8.4 18.7 7.5 18.7 6.9 18.1C6.3 17.5 6.3 16.6 6.9 16C7.5 15.4 8.4 15.4 9 16ZM15 16C15.6 15.4 16.5 15.4 17.1 16C17.7 16.6 17.7 17.5 17.1 18.1C16.5 18.7 15.6 18.7 15 18.1C14.4 17.5 14.4 16.6 15 16Z" fill="currentColor"/>
</svg>
